<svg width="16" height="16" viewBox="0 0 16 16" fill="none" xmlns="http://www.w3.org/2000/svg">
<path fill-rule="evenodd" clip-rule="evenodd" d="M6.58036 0.80225L7.0144 0.4395C7.31432 0.18925 7.61118 0 8 0C8.38882 0 8.68568 0.18925 8.98534 0.4395L9.41938 0.80225H6.58036ZM11.1596 4.43325C11.0546 4.15975 10.8888 3.92225 10.6663 3.72775C10.4446 3.534 10.1579 3.382 9.81459 3.2765C9.47303 3.1715 9.05841 3.1185 8.58221 3.1185C8.25675 3.1185 7.95325 3.14825 7.68015 3.207C7.40655 3.266 7.15338 3.35025 6.92703 3.45775C6.70043 3.5655 6.49325 3.69625 6.31084 3.84625C6.12895 3.99625 5.96621 4.16325 5.82724 4.34275C5.68878 4.52175 5.56768 4.71425 5.46703 4.915C5.36663 5.1155 5.28386 5.32475 5.22101 5.53675C5.15868 5.74825 5.11167 5.9655 5.08178 6.18225C5.05164 6.3995 5.03656 6.61525 5.03656 6.8235C5.03656 7.19975 5.08919 7.54325 5.19266 7.8445C5.29689 8.1485 5.46447 8.411 5.69107 8.6245C5.91691 8.83775 6.21044 9.00275 6.56299 9.11475C6.91324 9.22625 7.34166 9.2825 7.83676 9.2825C8.05416 9.2825 8.25777 9.27225 8.44222 9.252C8.62692 9.23125 8.78889 9.2075 8.92403 9.181C9.06096 9.15425 9.17311 9.126 9.25716 9.09725C9.37366 9.0575 9.40508 9.03825 9.42066 9.02425C9.44059 9.00625 9.45719 8.985 9.46971 8.9615C9.48223 8.939 9.49219 8.912 9.49986 8.881C9.50701 8.851 9.51186 8.81575 9.51467 8.77575C9.51723 8.737 9.51876 8.689 9.51876 8.632C9.51876 8.56425 9.51672 8.5085 9.51263 8.46425C9.50854 8.41725 9.50216 8.3805 9.49321 8.3515C9.48172 8.31475 9.46537 8.28925 9.44212 8.27325C9.42041 8.2585 9.39486 8.251 9.36625 8.251C9.34479 8.251 9.30315 8.25475 9.19227 8.2875C9.11614 8.30975 9.01625 8.33375 8.89567 8.3585C8.77356 8.38375 8.62973 8.40775 8.46827 8.43025C8.30733 8.4525 8.1262 8.46375 7.93 8.46375C7.5537 8.46375 7.23717 8.4245 6.9886 8.3465C6.74309 8.26975 6.54434 8.157 6.39796 8.0115C6.25234 7.8665 6.14836 7.68725 6.08884 7.47875C6.02829 7.2665 5.99738 7.02175 5.99738 6.7515C5.99738 6.6015 6.00632 6.445 6.02446 6.28575C6.04209 6.127 6.07045 5.96525 6.10851 5.8055C6.14683 5.64625 6.19895 5.487 6.26358 5.3325C6.32796 5.17775 6.40792 5.02975 6.50117 4.893C6.59441 4.7565 6.70529 4.6285 6.83149 4.51225C6.95718 4.39675 7.10228 4.29525 7.26323 4.2105C7.42417 4.1255 7.60888 4.058 7.81197 4.01C8.01507 3.9615 8.24423 3.937 8.4928 3.937C8.86348 3.937 9.17209 3.9765 9.41019 4.05425C9.64598 4.13125 9.83529 4.237 9.97273 4.369C10.1097 4.50075 10.2065 4.65475 10.2606 4.82675C10.3158 5.0025 10.3437 5.191 10.3437 5.3875C10.3437 5.497 10.3378 5.61225 10.3266 5.73025C10.3151 5.84775 10.2972 5.96625 10.2729 6.082C10.2489 6.19675 10.2175 6.30825 10.1797 6.4135C10.1424 6.517 10.0966 6.60925 10.0435 6.6875C9.99189 6.76375 9.93109 6.82475 9.86237 6.86875C9.79492 6.91175 9.72288 6.93275 9.6419 6.93275C9.52157 6.93275 9.44442 6.8985 9.40584 6.82825C9.36369 6.75175 9.3596 6.62425 9.39358 6.4495L9.72799 4.747C9.73157 4.715 9.72748 4.686 9.71573 4.6615C9.7027 4.63375 9.67715 4.6115 9.63985 4.595C9.6092 4.58175 9.5696 4.5715 9.51927 4.56475C9.4715 4.558 9.41223 4.5545 9.343 4.5545C9.19994 4.5545 9.10107 4.567 9.04078 4.593C8.95545 4.6295 8.92582 4.688 8.91611 4.73075L8.87294 4.923C8.82312 4.86625 8.77458 4.81625 8.72809 4.7735C8.65936 4.71 8.58707 4.6575 8.51375 4.61775C8.44017 4.57775 8.36251 4.548 8.28357 4.52925C8.20437 4.51075 8.11828 4.50125 8.02708 4.50125C7.82654 4.50125 7.64592 4.53725 7.4906 4.60875C7.33706 4.67925 7.20064 4.77425 7.08542 4.89075C6.97123 5.00675 6.87415 5.13975 6.797 5.2865C6.72087 5.432 6.65879 5.5845 6.61281 5.74025C6.56682 5.89575 6.53361 6.04975 6.51419 6.19775C6.49452 6.34625 6.48456 6.4825 6.48456 6.60325C6.48456 6.69625 6.49069 6.789 6.50244 6.8795C6.51471 6.97125 6.53565 7.06025 6.56503 7.144C6.59492 7.22875 6.63401 7.30725 6.68153 7.3775C6.72981 7.44925 6.79138 7.513 6.86419 7.5665C6.93699 7.6205 7.02385 7.66325 7.12221 7.694C7.29593 7.74825 7.53581 7.756 7.75475 7.7085C7.85132 7.6875 7.94993 7.653 8.04752 7.60575C8.14434 7.55925 8.24372 7.4995 8.34258 7.4285C8.42255 7.371 8.5043 7.30275 8.5863 7.22475C8.61159 7.28925 8.64353 7.3485 8.68185 7.40175C8.736 7.4765 8.80575 7.54 8.88878 7.59025C8.97053 7.6395 9.06709 7.67725 9.17592 7.70275C9.28271 7.7275 9.40303 7.74 9.53332 7.74C9.75098 7.74 9.94948 7.70625 10.1227 7.63975C10.2959 7.57325 10.4507 7.48125 10.5825 7.3665C10.7141 7.25225 10.8278 7.115 10.9208 6.95925C11.0133 6.80425 11.0899 6.63675 11.1487 6.46125C11.2077 6.2855 11.2508 6.09975 11.2769 5.909C11.303 5.71825 11.3162 5.5275 11.3162 5.34175C11.3162 5.01075 11.2636 4.705 11.1596 4.43325ZM8.44886 6.496C8.37375 6.57375 8.30452 6.6415 8.24244 6.69725C8.17832 6.75525 8.11803 6.802 8.0631 6.83625C8.0092 6.87025 7.95734 6.89525 7.90854 6.9105C7.86103 6.92525 7.81453 6.93275 7.77059 6.93275C7.65384 6.93275 7.57413 6.897 7.52687 6.82325C7.47552 6.74325 7.44947 6.63075 7.44947 6.48925C7.44947 6.42575 7.45457 6.3505 7.46479 6.265C7.4745 6.1805 7.49187 6.09275 7.51563 6.00425C7.53939 5.9165 7.56979 5.82875 7.60658 5.74325C7.64209 5.6605 7.68603 5.585 7.73789 5.51875C7.78796 5.45425 7.84646 5.40225 7.91161 5.36425C7.97522 5.32675 8.04573 5.3085 8.12773 5.3085C8.22226 5.3085 8.30452 5.3395 8.37963 5.40275C8.4555 5.467 8.53035 5.563 8.60188 5.6885L8.44886 6.496ZM2.90417 1.374H13.0958C13.6834 1.374 14.1642 1.84475 14.1642 2.41975V6.61725C14.1642 6.712 14.1218 6.79325 14.0436 6.84875L13.6752 7.11C13.6206 7.14875 13.5529 7.154 13.4926 7.124C13.4325 7.094 13.397 7.03725 13.397 6.97125V2.452C13.397 2.29475 13.266 2.16625 13.105 2.16625H2.89497C2.73403 2.16625 2.60271 2.29475 2.60271 2.452V6.971C2.60271 7.03725 2.5672 7.094 2.50717 7.124C2.44688 7.15375 2.37918 7.14875 2.32451 7.11L1.95638 6.84875C1.87795 6.79325 1.83554 6.712 1.83554 6.61725V2.41975C1.83554 1.84475 2.31659 1.374 2.90417 1.374ZM8 16H1.16902C0.52601 16 0 15.4852 0 14.856V7.22425C0 6.81475 0.0204375 6.282 0.638927 5.7655L0.769472 5.6565C0.858119 5.58225 0.975379 5.5665 1.0814 5.61425C1.18742 5.662 1.25129 5.75975 1.25129 5.874V6.763C1.25129 6.95225 1.3361 7.115 1.49245 7.22625L1.77449 7.42625L7.30206 11.4522C7.72282 11.7585 8.27718 11.7585 8.69794 11.4522L14.2255 7.42625L14.5073 7.22625C14.6639 7.115 14.7487 6.95225 14.7487 6.763V5.874C14.7487 5.75975 14.8126 5.662 14.9186 5.61425C15.0244 5.5665 15.1419 5.58225 15.2305 5.6565L15.3611 5.7655C15.9796 6.282 16 6.81475 16 7.22425V14.856C16 15.4852 15.4737 16 14.831 16H8Z" fill="#16161D"/>
</svg>
